<svg xmlns="http://www.w3.org/2000/svg" viewBox="0 0 240 60" fill="none">
  <!-- Shield icon -->
  <g transform="translate(8, 4)">
    <path d="M26 2L6 10V28C6 40 16 50 26 54C36 50 46 40 46 28V10L26 2Z" fill="url(#shieldGrad)" stroke="url(#strokeGrad)" stroke-width="1.2"/>
    <!-- City skyline inside shield -->
    <rect x="22" y="14" width="8" height="28" rx="1" fill="#070812" opacity="0.9"/>
    <rect x="14" y="22" width="8" height="20" rx="1" fill="#070812" opacity="0.75"/>
    <rect x="30" y="18" width="8" height="24" rx="1" fill="#070812" opacity="0.82"/>
    <!-- Chart line -->
    <polyline points="10,38 18,32 26,28 34,20 42,16" stroke="#00E5FF" stroke-width="1.8" stroke-linecap="round" stroke-linejoin="round" fill="none"/>
    <circle cx="42" cy="16" r="2.2" fill="#00E5FF"/>
  </g>
  <!-- Text -->
  <text x="62" y="28" font-family="'Inter','SF Pro Display','Segoe UI',system-ui,sans-serif" font-size="22" font-weight="800" fill="white" letter-spacing="-0.5">GOTHAM</text>
  <text x="62" y="48" font-family="'Inter','SF Pro Display','Segoe UI',system-ui,sans-serif" font-size="13" font-weight="500" fill="#636B8A" letter-spacing="3">FINANCIAL</text>
  <defs>
    <linearGradient id="shieldGrad" x1="6" y1="2" x2="46" y2="54">
      <stop offset="0%" stop-color="#8B5CF6"/>
      <stop offset="50%" stop-color="#6C63FF"/>
      <stop offset="100%" stop-color="#00E5FF"/>
    </linearGradient>
    <linearGradient id="strokeGrad" x1="6" y1="2" x2="46" y2="54">
      <stop offset="0%" stop-color="#8B5CF6"/>
      <stop offset="100%" stop-color="#6C63FF80"/>
    </linearGradient>
  </defs>
</svg>
